<svg width="15" height="20" viewBox="0 0 15 20" fill="none" xmlns="http://www.w3.org/2000/svg">
<path d="M5.5 20C3.96667 20 2.66667 19.4667 1.6 18.4C0.533333 17.3333 0 16.0333 0 14.5V4C0 2.9 0.391667 1.95833 1.175 1.175C1.95833 0.391667 2.9 0 4 0C5.1 0 6.04167 0.391667 6.825 1.175C7.60833 1.95833 8 2.9 8 4V12H6.5V4C6.5 3.3 6.25833 2.70833 5.775 2.225C5.29167 1.74167 4.7 1.5 4 1.5C3.3 1.5 2.70833 1.74167 2.225 2.225C1.74167 2.70833 1.5 3.3 1.5 4V14.5C1.5 15.6 1.89167 16.5417 2.675 17.325C3.45833 18.1083 4.4 18.5 5.5 18.5C5.98333 18.5 6.43767 18.4207 6.863 18.262C7.28767 18.104 7.66667 17.8833 8 17.6V19.4C7.61667 19.5833 7.21667 19.729 6.8 19.837C6.38333 19.9457 5.95 20 5.5 20ZM10 16H8C7.71667 16 7.47933 15.904 7.288 15.712C7.096 15.5207 7 15.2833 7 15C7 14.7167 7.096 14.4793 7.288 14.288C7.47933 14.096 7.71667 14 8 14H10V12C10 11.7167 10.096 11.479 10.288 11.287C10.4793 11.0957 10.7167 11 11 11C11.2833 11 11.5207 11.0957 11.712 11.287C11.904 11.479 12 11.7167 12 12V14H14C14.2833 14 14.5207 14.096 14.712 14.288C14.904 14.4793 15 14.7167 15 15C15 15.2833 14.904 15.5207 14.712 15.712C14.5207 15.904 14.2833 16 14 16H12V18C12 18.2833 11.904 18.5207 11.712 18.712C11.5207 18.904 11.2833 19 11 19C10.7167 19 10.4793 18.904 10.288 18.712C10.096 18.5207 10 18.2833 10 18V16ZM5.5 14.5V16C4.8 16 4.20833 15.7583 3.725 15.275C3.24167 14.7917 3 14.2 3 13.5V4.75C3 4.53333 3.071 4.35433 3.213 4.213C3.35433 4.071 3.53333 4 3.75 4C3.96667 4 4.146 4.071 4.288 4.213C4.42933 4.35433 4.5 4.53333 4.5 4.75V13.5C4.5 13.7833 4.596 14.0207 4.788 14.212C4.97933 14.404 5.21667 14.5 5.5 14.5ZM9.5 9V4.75C9.5 4.53333 9.571 4.35433 9.713 4.213C9.85433 4.071 10.0333 4 10.25 4C10.4667 4 10.646 4.071 10.788 4.213C10.9293 4.35433 11 4.53333 11 4.75V9H9.5Z" fill="black"/>
</svg>
