<svg width="8" height="4" viewBox="0 0 8 4" fill="none" xmlns="http://www.w3.org/2000/svg">
<path d="M0.707803 0.167939C0.8229 0.0559794 0.969387 0 1.14726 0C1.32514 0 1.47163 0.0559794 1.58673 0.167939L4.03516 2.54962L6.48359 0.167939C6.59868 0.0559794 6.74517 0 6.92305 0C7.10093 0 7.24741 0.0559794 7.36251 0.167939C7.47761 0.279898 7.53516 0.422392 7.53516 0.595419C7.53516 0.768447 7.47761 0.910942 7.36251 1.0229L4.47462 3.83206C4.41184 3.89313 4.34383 3.93649 4.27058 3.96214C4.19734 3.98738 4.11886 4 4.03516 4C3.95145 4 3.87297 3.98738 3.79973 3.96214C3.72649 3.93649 3.65847 3.89313 3.59569 3.83206L0.707803 1.0229C0.592706 0.910942 0.535156 0.768447 0.535156 0.595419C0.535156 0.422392 0.592706 0.279898 0.707803 0.167939Z" fill="black"/>
</svg>
