<svg width="10" height="18" viewBox="0 0 10 18" fill="none" xmlns="http://www.w3.org/2000/svg">
<path d="M4.44087 18C4.15754 18 3.91988 17.904 3.72788 17.712C3.53654 17.5207 3.44087 17.2833 3.44087 17V15.85C2.69087 15.6833 2.03254 15.3917 1.46588 14.975C0.899209 14.5583 0.440875 13.975 0.0908754 13.225C-0.0257913 12.9917 -0.0301246 12.746 0.0778754 12.488C0.186542 12.2293 0.382542 12.0417 0.665875 11.925C0.899209 11.825 1.14088 11.8293 1.39088 11.938C1.64088 12.046 1.83254 12.225 1.96588 12.475C2.24921 12.975 2.60754 13.3543 3.04088 13.613C3.47421 13.871 4.00754 14 4.64088 14C5.32421 14 5.90354 13.846 6.37888 13.538C6.85354 13.2293 7.09088 12.75 7.09088 12.1C7.09088 11.5167 6.90754 11.054 6.54087 10.712C6.17421 10.3707 5.32421 9.98333 3.99088 9.55C2.55754 9.1 1.57421 8.56267 1.04088 7.938C0.507542 7.31267 0.240875 6.55 0.240875 5.65C0.240875 4.56667 0.590875 3.725 1.29088 3.125C1.99088 2.525 2.70754 2.18333 3.44087 2.1V1C3.44087 0.716667 3.53654 0.479 3.72788 0.287C3.91988 0.0956666 4.15754 0 4.44087 0C4.72421 0 4.96187 0.0956666 5.15387 0.287C5.34521 0.479 5.44087 0.716667 5.44087 1V2.1C6.07421 2.2 6.62421 2.40433 7.09088 2.713C7.55754 3.021 7.94088 3.4 8.24088 3.85C8.39087 4.06667 8.42021 4.30833 8.32888 4.575C8.23688 4.84167 8.04921 5.03333 7.76588 5.15C7.53254 5.25 7.29087 5.254 7.04087 5.162C6.79087 5.07067 6.55754 4.90833 6.34088 4.675C6.12421 4.44167 5.87021 4.26233 5.57888 4.137C5.28688 4.01233 4.92421 3.95 4.49087 3.95C3.75754 3.95 3.19921 4.11267 2.81587 4.438C2.43254 4.76267 2.24088 5.16667 2.24088 5.65C2.24088 6.2 2.49088 6.63333 2.99088 6.95C3.49088 7.26667 4.35754 7.6 5.59088 7.95C6.74088 8.28333 7.61188 8.81233 8.20388 9.537C8.79521 10.2623 9.09087 11.1 9.09087 12.05C9.09087 13.2333 8.74088 14.1333 8.04088 14.75C7.34088 15.3667 6.47421 15.75 5.44087 15.9V17C5.44087 17.2833 5.34521 17.5207 5.15387 17.712C4.96187 17.904 4.72421 18 4.44087 18Z" fill="#797979"/>
</svg>
